<svg width="24" height="25" viewBox="0 0 24 25" fill="none" xmlns="http://www.w3.org/2000/svg">
<path d="M7.00684 12.4901C7.00684 12.2912 7.08585 12.1004 7.22651 11.9597C7.36716 11.8191 7.55792 11.7401 7.75684 11.7401H11.2498V8.24707C11.2498 8.04816 11.3289 7.85739 11.4695 7.71674C11.6102 7.57609 11.8009 7.49707 11.9998 7.49707C12.1987 7.49707 12.3895 7.57609 12.5302 7.71674C12.6708 7.85739 12.7498 8.04816 12.7498 8.24707V11.7401H16.2428C16.4417 11.7401 16.6325 11.8191 16.7732 11.9597C16.9138 12.1004 16.9928 12.2912 16.9928 12.4901C16.9928 12.689 16.9138 12.8797 16.7732 13.0204C16.6325 13.1611 16.4417 13.2401 16.2428 13.2401H12.7498V16.7331C12.7498 16.932 12.6708 17.1227 12.5302 17.2634C12.3895 17.4041 12.1987 17.4831 11.9998 17.4831C11.8009 17.4831 11.6102 17.4041 11.4695 17.2634C11.3289 17.1227 11.2498 16.932 11.2498 16.7331V13.2401H7.75684C7.55792 13.2401 7.36716 13.1611 7.22651 13.0204C7.08585 12.8797 7.00684 12.689 7.00684 12.4901Z" fill="#FF6000"/>
<path fill-rule="evenodd" clip-rule="evenodd" d="M7.31684 4.25878C10.4293 3.91374 13.5704 3.91374 16.6828 4.25878C18.5098 4.46278 19.9848 5.90178 20.1988 7.73878C20.5688 10.8958 20.5688 14.0848 20.1988 17.2418C19.9838 19.0788 18.5088 20.5168 16.6828 20.7218C13.5704 21.0668 10.4293 21.0668 7.31684 20.7218C5.48984 20.5168 4.01484 19.0788 3.80084 17.2418C3.43162 14.0849 3.43162 10.8957 3.80084 7.73878C4.01484 5.90178 5.49084 4.46278 7.31684 4.25878ZM16.5168 5.74878C13.5147 5.41602 10.485 5.41602 7.48284 5.74878C6.92708 5.81044 6.40834 6.05766 6.01042 6.4505C5.6125 6.84334 5.35863 7.35886 5.28984 7.91378C4.93419 10.9548 4.93419 14.0268 5.28984 17.0678C5.35884 17.6225 5.6128 18.1378 6.0107 18.5305C6.40861 18.9231 6.92723 19.1702 7.48284 19.2318C10.4598 19.5638 13.5398 19.5638 16.5168 19.2318C17.0723 19.17 17.5907 18.9228 17.9884 18.5302C18.3861 18.1375 18.6399 17.6224 18.7088 17.0678C19.0645 14.0268 19.0645 10.9548 18.7088 7.91378C18.6397 7.35937 18.3858 6.84443 17.9881 6.452C17.5904 6.05958 17.0721 5.81256 16.5168 5.75078V5.74878Z" fill="#FF6000"/>
</svg>
