<svg width="10" height="6" viewBox="0 0 10 6" fill="none" xmlns="http://www.w3.org/2000/svg">
<path d="M9.78041 0.477159C9.63976 0.336556 9.44903 0.257569 9.25016 0.257569C9.05129 0.257569 8.86056 0.336556 8.71991 0.477159L5.00741 4.18966L1.29491 0.477159C1.15346 0.34054 0.964008 0.264944 0.76736 0.266653C0.570713 0.268362 0.382603 0.347239 0.243547 0.486294C0.104491 0.625351 0.0256152 0.81346 0.0239062 1.01011C0.0221972 1.20676 0.097793 1.39621 0.234412 1.53766L4.47716 5.78041C4.61781 5.92101 4.80854 6 5.00741 6C5.20628 6 5.39701 5.92101 5.53766 5.78041L9.78041 1.53766C9.92101 1.39701 10 1.20628 10 1.00741C10 0.808536 9.92101 0.617805 9.78041 0.477159Z" fill="#697785"/>
</svg>
