<svg width="12" height="12" viewBox="0 0 12 12" fill="none" xmlns="http://www.w3.org/2000/svg">
<path d="M11.1546 10.3083L6.84396 5.99545L11.1546 1.68259C11.2678 1.57249 11.3317 1.42125 11.3317 1.2633C11.3317 1.10535 11.2678 0.954109 11.1546 0.844C11.044 0.730807 10.8925 0.666992 10.7344 0.666992C10.5762 0.666992 10.4247 0.730807 10.3142 0.844L6.00356 5.15686L1.69228 0.855323C1.54385 0.698202 1.32181 0.634113 1.11251 0.687977C0.903202 0.74184 0.739675 0.905157 0.685492 1.11442C0.631307 1.32368 0.695028 1.54587 0.85188 1.69459L5.16181 5.99545L0.85188 10.3083C0.695028 10.457 0.631307 10.6792 0.685492 10.8885C0.739675 11.0977 0.903202 11.261 1.11251 11.3149C1.32181 11.3688 1.54385 11.3047 1.69228 11.1476L6.00288 6.83471L10.3242 11.1476C10.4348 11.2608 10.5864 11.3246 10.7447 11.3246C10.903 11.3246 11.0546 11.2608 11.1652 11.1476C11.3932 10.9126 11.3885 10.5374 11.1546 10.3083Z" fill="black"/>
</svg>
