<svg width="48" height="48" viewBox="0 0 48 48" fill="none" xmlns="http://www.w3.org/2000/svg">
<path d="M25.758 7.43532C25.106 6.19632 23.336 6.18632 22.67 7.41832L6.71702 36.9193C6.57274 37.1859 6.50017 37.4854 6.50642 37.7884C6.51267 38.0914 6.59753 38.3877 6.75267 38.6481C6.90782 38.9084 7.12794 39.1241 7.39147 39.2738C7.655 39.4236 7.95291 39.5023 8.25602 39.5023H39.743C40.0446 39.5025 40.341 39.4247 40.6037 39.2765C40.8663 39.1284 41.0863 38.9149 41.2421 38.6567C41.3979 38.3986 41.4844 38.1045 41.4932 37.8031C41.5019 37.5017 41.4326 37.2031 41.292 36.9363L25.758 7.43532ZM20.471 6.22832C22.088 3.23832 26.387 3.26232 27.971 6.27032L43.504 35.7723C44.994 38.6023 42.942 42.0023 39.744 42.0023H8.25502C5.03502 42.0023 2.98502 38.5623 4.51702 35.7303L20.471 6.22832ZM24 15.0003C24.69 15.0003 25.25 15.5603 25.25 16.2503V27.7503C25.25 28.0818 25.1183 28.3998 24.8839 28.6342C24.6495 28.8686 24.3315 29.0003 24 29.0003C23.6685 29.0003 23.3506 28.8686 23.1161 28.6342C22.8817 28.3998 22.75 28.0818 22.75 27.7503V16.2503C22.75 15.5603 23.31 15.0003 24 15.0003ZM24 35.0003C24.5305 35.0003 25.0392 34.7896 25.4142 34.4145C25.7893 34.0395 26 33.5308 26 33.0003C26 32.4699 25.7893 31.9612 25.4142 31.5861C25.0392 31.211 24.5305 31.0003 24 31.0003C23.4696 31.0003 22.9609 31.211 22.5858 31.5861C22.2107 31.9612 22 32.4699 22 33.0003C22 33.5308 22.2107 34.0395 22.5858 34.4145C22.9609 34.7896 23.4696 35.0003 24 35.0003Z" fill="white"/>
</svg>
