<svg width="42" height="42" viewBox="0 0 42 42" fill="none" xmlns="http://www.w3.org/2000/svg">
<path d="M36.75 5.25V42H5.25V5.25H15.75C15.75 4.52539 15.8867 3.84863 16.1602 3.21973C16.4336 2.59082 16.8096 2.03027 17.2881 1.53809C17.7666 1.0459 18.3203 0.669922 18.9492 0.410156C19.5781 0.150391 20.2617 0.0136719 21 0C21.7246 0 22.4014 0.136719 23.0303 0.410156C23.6592 0.683594 24.2197 1.05957 24.7119 1.53809C25.2041 2.0166 25.5801 2.57031 25.8398 3.19922C26.0996 3.82812 26.2363 4.51172 26.25 5.25H36.75ZM13.125 10.5H28.875V7.875H23.625V5.25C23.625 4.88086 23.5566 4.53906 23.4199 4.22461C23.2832 3.91016 23.0986 3.63672 22.8662 3.4043C22.6338 3.17188 22.3535 2.98047 22.0254 2.83008C21.6973 2.67969 21.3555 2.61133 21 2.625C20.6309 2.625 20.2891 2.69336 19.9746 2.83008C19.6602 2.9668 19.3867 3.15137 19.1543 3.38379C18.9219 3.61621 18.7305 3.89648 18.5801 4.22461C18.4297 4.55273 18.3613 4.89453 18.375 5.25V7.875H13.125V10.5ZM34.125 7.875H31.5V13.125H10.5V7.875H7.875V39.375H34.125V7.875ZM15.75 18.375H31.5V21H15.75V18.375ZM15.75 26.25H31.5V28.875H15.75V26.25ZM15.75 34.125H31.5V36.75H15.75V34.125ZM10.5 18.375H13.125V21H10.5V18.375ZM10.5 26.25H13.125V28.875H10.5V26.25ZM10.5 34.125H13.125V36.75H10.5V34.125Z" fill="#697785"/>
</svg>
