<svg width="14" height="14" viewBox="0 0 14 14" fill="none" xmlns="http://www.w3.org/2000/svg">
<path d="M7.499 5.5C7.499 5.36739 7.44632 5.24021 7.35255 5.14645C7.25879 5.05268 7.13161 5 6.999 5C6.86639 5 6.73921 5.05268 6.64545 5.14645C6.55168 5.24021 6.499 5.36739 6.499 5.5V10.5C6.499 10.6326 6.55168 10.7598 6.64545 10.8536C6.73921 10.9473 6.86639 11 6.999 11C7.13161 11 7.25879 10.9473 7.35255 10.8536C7.44632 10.7598 7.499 10.6326 7.499 10.5V5.5ZM7.749 3.5C7.749 3.69878 7.67003 3.88942 7.52948 4.02998C7.38892 4.17054 7.19828 4.2495 6.9995 4.2495C6.80072 4.2495 6.61008 4.17054 6.46952 4.02998C6.32896 3.88942 6.25 3.69878 6.25 3.5C6.25 3.30135 6.32891 3.11084 6.46938 2.97038C6.60984 2.82991 6.80035 2.751 6.999 2.751C7.19765 2.751 7.38816 2.82991 7.52862 2.97038C7.66909 3.11084 7.749 3.30135 7.749 3.5ZM7 0C5.14348 0 3.36301 0.737498 2.05025 2.05025C0.737498 3.36301 0 5.14348 0 7C0 8.85652 0.737498 10.637 2.05025 11.9497C3.36301 13.2625 5.14348 14 7 14C8.85652 14 10.637 13.2625 11.9497 11.9497C13.2625 10.637 14 8.85652 14 7C14 5.14348 13.2625 3.36301 11.9497 2.05025C10.637 0.737498 8.85652 0 7 0ZM1 7C1 6.21207 1.15519 5.43185 1.45672 4.7039C1.75825 3.97595 2.20021 3.31451 2.75736 2.75736C3.31451 2.20021 3.97595 1.75825 4.7039 1.45672C5.43185 1.15519 6.21207 1 7 1C7.78793 1 8.56815 1.15519 9.2961 1.45672C10.0241 1.75825 10.6855 2.20021 11.2426 2.75736C11.7998 3.31451 12.2417 3.97595 12.5433 4.7039C12.8448 5.43185 13 6.21207 13 7C13 8.5913 12.3679 10.1174 11.2426 11.2426C10.1174 12.3679 8.5913 13 7 13C5.4087 13 3.88258 12.3679 2.75736 11.2426C1.63214 10.1174 1 8.5913 1 7Z" fill="#FF6000"/>
</svg>
