<svg width="12" height="12" viewBox="0 0 12 12" fill="none" xmlns="http://www.w3.org/2000/svg">
<g opacity="0.5">
<path d="M8.03029 10.7726C8.17089 10.632 8.24988 10.4412 8.24988 10.2423C8.24988 10.0435 8.17089 9.85274 8.03029 9.7121L4.31779 5.9996L8.03029 2.2871C8.16691 2.14565 8.2425 1.95619 8.24079 1.75955C8.23908 1.5629 8.16021 1.37479 8.02115 1.23573C7.88209 1.09668 7.69398 1.0178 7.49734 1.01609C7.30069 1.01438 7.11124 1.08998 6.96979 1.2266L2.72704 5.46935C2.58643 5.60999 2.50745 5.80072 2.50745 5.9996C2.50745 6.19847 2.58643 6.3892 2.72704 6.52985L6.96979 10.7726C7.11043 10.9132 7.30116 10.9922 7.50004 10.9922C7.69891 10.9922 7.88964 10.9132 8.03029 10.7726Z" fill="#808080"/>
</g>
</svg>
