<svg width="20" height="20" viewBox="0 0 20 20" fill="none" xmlns="http://www.w3.org/2000/svg">
<path d="M4.0625 11.4062H2.8125C2.68818 11.4062 2.56895 11.4556 2.48104 11.5435C2.39314 11.6315 2.34375 11.7507 2.34375 11.875V16.25C2.34375 16.3743 2.39314 16.4935 2.48104 16.5815C2.56895 16.6694 2.68818 16.7188 2.8125 16.7188H4.0625C4.76698 16.7188 5.44261 16.4389 5.94075 15.9408C6.4389 15.4426 6.71875 14.767 6.71875 14.0625C6.71875 13.358 6.4389 12.6824 5.94075 12.1842C5.44261 11.6861 4.76698 11.4062 4.0625 11.4062ZM4.0625 15.7812H3.28125V12.3438H4.0625C4.51834 12.3438 4.95551 12.5248 5.27784 12.8472C5.60017 13.1695 5.78125 13.6067 5.78125 14.0625C5.78125 14.5183 5.60017 14.9555 5.27784 15.2778C4.95551 15.6002 4.51834 15.7812 4.0625 15.7812ZM17.1992 15.3547C17.2889 15.4407 17.3407 15.5588 17.3434 15.683C17.346 15.8073 17.2992 15.9274 17.2133 16.0172C17.0103 16.2361 16.7647 16.4113 16.4916 16.5319C16.2184 16.6526 15.9236 16.7161 15.625 16.7188C14.3328 16.7188 13.2812 15.5273 13.2812 14.0625C13.2812 12.5977 14.3328 11.4062 15.625 11.4062C15.9237 11.4091 16.2186 11.4729 16.4918 11.5938C16.7649 11.7147 17.0104 11.8902 17.2133 12.1094C17.2952 12.1998 17.3386 12.3187 17.3343 12.4406C17.33 12.5626 17.2783 12.678 17.1902 12.7625C17.1021 12.8469 16.9845 12.8937 16.8625 12.8928C16.7405 12.8919 16.6236 12.8435 16.5367 12.7578C16.4208 12.6305 16.2802 12.5282 16.1235 12.457C15.9667 12.3858 15.7971 12.3473 15.625 12.3438C14.8492 12.3438 14.2188 13.1148 14.2188 14.0625C14.2188 15.0102 14.8492 15.7812 15.625 15.7812C15.797 15.7779 15.9665 15.7397 16.1233 15.6687C16.28 15.5978 16.4207 15.4958 16.5367 15.3687C16.6227 15.2791 16.7408 15.2272 16.8651 15.2246C16.9893 15.222 17.1095 15.2687 17.1992 15.3547ZM10 11.4062C8.70781 11.4062 7.65625 12.5977 7.65625 14.0625C7.65625 15.5273 8.70781 16.7188 10 16.7188C11.2922 16.7188 12.3438 15.5273 12.3438 14.0625C12.3438 12.5977 11.2922 11.4062 10 11.4062ZM10 15.7812C9.22422 15.7812 8.59375 15.0102 8.59375 14.0625C8.59375 13.1148 9.22422 12.3438 10 12.3438C10.7758 12.3438 11.4062 13.1148 11.4062 14.0625C11.4062 15.0102 10.7758 15.7812 10 15.7812ZM3.75 9.21875C3.87432 9.21875 3.99355 9.16936 4.08146 9.08146C4.16936 8.99355 4.21875 8.87432 4.21875 8.75V3.125C4.21875 3.08356 4.23521 3.04382 4.26451 3.01451C4.29382 2.98521 4.33356 2.96875 4.375 2.96875H11.4062V6.875C11.4062 6.99932 11.4556 7.11855 11.5435 7.20646C11.6315 7.29436 11.7507 7.34375 11.875 7.34375H15.7812V8.75C15.7812 8.87432 15.8306 8.99355 15.9185 9.08146C16.0065 9.16936 16.1257 9.21875 16.25 9.21875C16.3743 9.21875 16.4935 9.16936 16.5815 9.08146C16.6694 8.99355 16.7188 8.87432 16.7188 8.75V6.875C16.7186 6.75072 16.6692 6.63157 16.5813 6.54375L12.2063 2.16875C12.1184 2.08082 11.9993 2.03136 11.875 2.03125H4.375C4.08492 2.03125 3.80672 2.14648 3.6016 2.3516C3.39648 2.55672 3.28125 2.83492 3.28125 3.125V8.75C3.28125 8.87432 3.33064 8.99355 3.41854 9.08146C3.50645 9.16936 3.62568 9.21875 3.75 9.21875ZM12.3438 3.63125L15.1188 6.40625H12.3438V3.63125Z" fill="#2578C3"/>
</svg>
