<svg width="12" height="12" viewBox="0 0 12 12" fill="none" xmlns="http://www.w3.org/2000/svg">
<path d="M3.96971 1.2274C3.82911 1.36805 3.75012 1.55878 3.75012 1.75765C3.75012 1.95653 3.82911 2.14726 3.96971 2.2879L7.68221 6.0004L3.96971 9.7129C3.83309 9.85435 3.7575 10.0438 3.75921 10.2405C3.76092 10.4371 3.83979 10.6252 3.97885 10.7643C4.1179 10.9033 4.30601 10.9822 4.50266 10.9839C4.69931 10.9856 4.88876 10.91 5.03021 10.7734L9.27296 6.53065C9.41357 6.39001 9.49255 6.19928 9.49255 6.0004C9.49255 5.80153 9.41357 5.6108 9.27296 5.47015L5.03021 1.2274C4.88957 1.0868 4.69884 1.00781 4.49996 1.00781C4.30109 1.00781 4.11036 1.0868 3.96971 1.2274Z" fill="#808080"/>
</svg>
