<svg width="20" height="20" viewBox="0 0 20 20" fill="none" xmlns="http://www.w3.org/2000/svg">
<path d="M19.432 18.4156L14.004 12.9876C15.3083 11.4217 15.9588 9.41318 15.82 7.37988C15.6812 5.34659 14.7639 3.44508 13.2588 2.07092C11.7537 0.696757 9.7768 -0.0442502 7.7393 0.00204569C5.7018 0.0483415 3.76058 0.878376 2.31948 2.31948C0.878376 3.76058 0.0483415 5.7018 0.00204569 7.7393C-0.0442502 9.7768 0.696757 11.7537 2.07092 13.2588C3.44508 14.7639 5.34659 15.6812 7.37988 15.82C9.41318 15.9588 11.4217 15.3083 12.9876 14.004L18.4156 19.432L19.432 18.4156ZM1.4632 7.93195C1.4632 6.65255 1.84259 5.40189 2.55338 4.33811C3.26418 3.27433 4.27446 2.44521 5.45647 1.95561C6.63848 1.466 7.93913 1.3379 9.19394 1.5875C10.4488 1.8371 11.6014 2.45318 12.506 3.35786C13.4107 4.26253 14.0268 5.41515 14.2764 6.66996C14.526 7.92478 14.3979 9.22543 13.9083 10.4074C13.4187 11.5894 12.5896 12.5997 11.5258 13.3105C10.462 14.0213 9.21135 14.4007 7.93195 14.4007C6.21692 14.3988 4.57267 13.7167 3.35996 12.5039C2.14724 11.2912 1.46511 9.64699 1.4632 7.93195Z" fill="#4A95D9"/>
</svg>
