<svg width="18" height="18" viewBox="0 0 18 18" fill="none" xmlns="http://www.w3.org/2000/svg">
<path d="M4.00696 9.00008C4.00696 8.80117 4.08598 8.6104 4.22663 8.46975C4.36728 8.3291 4.55805 8.25008 4.75696 8.25008H8.24996V4.75708C8.24996 4.55817 8.32898 4.3674 8.46963 4.22675C8.61028 4.0861 8.80105 4.00708 8.99996 4.00708C9.19887 4.00708 9.38964 4.0861 9.53029 4.22675C9.67094 4.3674 9.74996 4.55817 9.74996 4.75708V8.25008H13.243C13.4419 8.25008 13.6326 8.3291 13.7733 8.46975C13.9139 8.6104 13.993 8.80117 13.993 9.00008C13.993 9.19899 13.9139 9.38976 13.7733 9.53041C13.6326 9.67106 13.4419 9.75008 13.243 9.75008H9.74996V13.2431C9.74996 13.442 9.67094 13.6328 9.53029 13.7734C9.38964 13.9141 9.19887 13.9931 8.99996 13.9931C8.80105 13.9931 8.61028 13.9141 8.46963 13.7734C8.32898 13.6328 8.24996 13.442 8.24996 13.2431V9.75008H4.75696C4.55805 9.75008 4.36728 9.67106 4.22663 9.53041C4.08598 9.38976 4.00696 9.19899 4.00696 9.00008Z" fill="#FF6000"/>
<path fill-rule="evenodd" clip-rule="evenodd" d="M4.31696 0.769035C7.42943 0.423993 10.5705 0.423993 13.683 0.769035C15.51 0.973035 16.985 2.41204 17.199 4.24904C17.569 7.40604 17.569 10.595 17.199 13.752C16.984 15.589 15.509 17.027 13.683 17.232C10.5705 17.5771 7.42943 17.5771 4.31696 17.232C2.48996 17.027 1.01496 15.589 0.800964 13.752C0.431742 10.5951 0.431742 7.40594 0.800964 4.24904C1.01496 2.41204 2.49096 0.973035 4.31696 0.769035ZM13.517 2.25904C10.5148 1.92627 7.4851 1.92627 4.48296 2.25904C3.92721 2.32069 3.40847 2.56791 3.01054 2.96075C2.61262 3.35359 2.35876 3.86912 2.28996 4.42404C1.93431 7.46501 1.93431 10.5371 2.28996 13.578C2.35897 14.1328 2.61292 14.6481 3.01083 15.0407C3.40873 15.4334 3.92736 15.6804 4.48296 15.742C7.45996 16.074 10.54 16.074 13.517 15.742C14.0724 15.6802 14.5908 15.433 14.9885 15.0404C15.3862 14.6478 15.64 14.1326 15.709 13.578C16.0646 10.5371 16.0646 7.465 15.709 4.42404C15.6398 3.86963 15.3859 3.35468 14.9882 2.96226C14.5905 2.56983 14.0722 2.32281 13.517 2.26104V2.25904Z" fill="#FF6000"/>
</svg>
