<svg width="20" height="17" viewBox="0 0 20 17" fill="none" xmlns="http://www.w3.org/2000/svg">
<path d="M19.7142 13.9476L11.9066 1.03875C11.7115 0.722485 11.433 0.460258 11.0986 0.278055C10.7643 0.0958518 10.3857 0 10.0004 0C9.6152 0 9.23663 0.0958518 8.90228 0.278055C8.56793 0.460258 8.2894 0.722485 8.09429 1.03875L0.286657 13.9476C0.0989313 14.2535 0 14.6014 0 14.9557C0 15.3099 0.0989313 15.6579 0.286657 15.9637C0.479264 16.2819 0.757321 16.5456 1.0923 16.7277C1.42727 16.9097 1.8071 17.0037 2.19281 16.9999H17.8081C18.1935 17.0034 18.5729 16.9093 18.9076 16.7272C19.2422 16.5452 19.52 16.2817 19.7124 15.9637C19.9004 15.658 19.9997 15.3102 20 14.9559C20.0003 14.6016 19.9017 14.2536 19.7142 13.9476ZM9.2862 6.79999C9.2862 6.61964 9.36145 6.44668 9.4954 6.31916C9.62934 6.19164 9.81102 6.12 10.0004 6.12C10.1899 6.12 10.3715 6.19164 10.5055 6.31916C10.6394 6.44668 10.7147 6.61964 10.7147 6.79999V10.2C10.7147 10.3803 10.6394 10.5533 10.5055 10.6808C10.3715 10.8083 10.1899 10.8799 10.0004 10.8799C9.81102 10.8799 9.62934 10.8083 9.4954 10.6808C9.36145 10.5533 9.2862 10.3803 9.2862 10.2V6.79999ZM10.0004 14.2799C9.78855 14.2799 9.58141 14.2201 9.40522 14.108C9.22904 13.9959 9.09171 13.8366 9.01062 13.6503C8.92954 13.4639 8.90832 13.2588 8.94966 13.0609C8.991 12.8631 9.09304 12.6813 9.24287 12.5387C9.3927 12.396 9.5836 12.2989 9.79143 12.2595C9.99926 12.2202 10.2147 12.2404 10.4104 12.3176C10.6062 12.3948 10.7735 12.5255 10.8913 12.6932C11.009 12.861 11.0718 13.0582 11.0718 13.2599C11.0718 13.5304 10.9589 13.7899 10.758 13.9812C10.5571 14.1725 10.2846 14.2799 10.0004 14.2799Z" fill="#EC721C"/>
</svg>
